<svg viewBox="0 0 24 24" fill="currentColor"
     xmlns="http://www.w3.org/2000/svg">
  <path d="M16.365 1.43c0 1.14-.44 2.19-1.19 3.02-.79.87-2.1 1.54-3.19 1.45-.14-1.1.45-2.27 1.19-3.03.82-.84 2.21-1.47 3.19-1.44zM20.44 17.34c-.54 1.2-.8 1.73-1.49 2.79-.97 1.47-2.33 3.31-4.02 3.33-1.5.02-1.88-.99-3.93-.99-2.06 0-2.48 1-3.93.99-1.69-.02-2.98-1.68-3.95-3.15-2.18-3.35-2.41-7.27-1.07-9.32.95-1.45 2.46-2.3 3.88-2.3 1.53 0 2.49 1.02 3.93 1.02 1.39 0 2.24-1.03 3.92-1.03 1.27 0 2.62.7 3.56 1.92-3.12 1.71-2.61 6.18.1 7.72z"/>
</svg>